<svg xmlns="http://www.w3.org/2000/svg" width="16" height="30" viewBox="0 0 16 30"><path d="M8.347,0a2.393,2.393,0,0,1,.316.147,5.163,5.163,0,0,1,.583.417,2.025,2.025,0,0,1,.269.362,1.655,1.655,0,0,1,.242.817,5.492,5.492,0,0,1,.006.6q0,10.487,0,20.975v.226l.05.033c.173-.2.344-.393.521-.585.309-.336.623-.666.932-1,.217-.236.428-.478.646-.712.166-.178.341-.346.511-.52.2-.207.407-.411.6-.623a1.772,1.772,0,0,1,.737-.461,1.584,1.584,0,0,1,1.386.183,1.879,1.879,0,0,1,.573.6,1.911,1.911,0,0,1,.268,1.237,1.656,1.656,0,0,1-.439,1.038c-.188.2-.359.424-.548.626s-.37.354-.546.539-.362.407-.546.608c-.1.106-.2.205-.3.308s-.221.227-.331.342-.233.245-.349.367l-.308.323c-.218.23-.438.459-.653.693-.184.2-.361.408-.544.608-.1.106-.2.2-.3.307l-.33.342c-.117.122-.235.243-.349.367s-.218.245-.328.368c-.078.088-.156.177-.237.263-.228.244-.442.5-.69.723a3.377,3.377,0,0,1-.575.349c-.088.05-.18.092-.271.137H7.655c-.017-.021-.031-.053-.053-.062-.164-.072-.335-.126-.493-.21a4.124,4.124,0,0,1-.767-.7c-.225-.207-.425-.443-.635-.667-.087-.094-.173-.189-.258-.285-.109-.124-.211-.254-.325-.372-.178-.184-.369-.354-.544-.54s-.358-.41-.541-.61c-.218-.238-.44-.471-.662-.706-.1-.108-.206-.215-.309-.322s-.232-.246-.349-.368-.23-.233-.344-.35c-.1-.1-.194-.2-.287-.3-.183-.2-.358-.411-.546-.608s-.371-.352-.546-.539C.8,23.15.631,22.924.439,22.717a1.6,1.6,0,0,1-.424-.959,1.935,1.935,0,0,1,.263-1.3,1.882,1.882,0,0,1,.573-.6,1.589,1.589,0,0,1,1.387-.183,1.774,1.774,0,0,1,.736.462c.2.212.4.416.6.623.17.174.345.342.511.52.219.234.429.477.646.712.309.335.623.666.932,1,.177.192.347.39.521.585l.05-.033V2.061a1.859,1.859,0,0,1,0-.25,1.758,1.758,0,0,1,.2-.8c.1-.146.2-.295.3-.438a1.3,1.3,0,0,1,.62-.44C7.467.1,7.56.046,7.655,0Z" transform="translate(-0.001)" fill="#efefef"/></svg>